<svg height="512" viewBox="0 0 58 58" width="512" xmlns="http://www.w3.org/2000/svg"><g id="Page-1" fill="none" fill-rule="evenodd"><g id="010---Open-Book" fill-rule="nonzero"><path id="Shape" d="m56.491.891-20.491 12.109c-2.1647608 1.1563703-4.5510829 1.8381767-7 2-2.4666032-.0529185-4.8777573-.7418197-7-2l-20.491-12.109c-.30916153-.18281755-.69261964-.18579307-1.00458099-.00779525-.31196135.17799783-.50450288.50962523-.50441901.86879525v39.107c.00004386.7074584.37383448 1.3622574.983 1.722l21.017 12.419c0 1.66 3.13 3 7 3s7-1.34 7-3l21.017-12.419c.6091655-.3597426.9829561-1.0145416.983-1.722v-39.107c.0000839-.35917002-.1924577-.69079742-.504419-.86879525-.3119614-.17799782-.6954195-.1750223-1.004581.00779525z" fill="#2fa8cc"/><path id="Shape" d="m22 13c2.1222427 1.2581803 4.5333968 1.9470815 7 2 2.4489171-.1618233 4.8352392-.8436297 7-2v42c0 1.657-3.134 3-7 3s-7-1.343-7-3z" fill="#2980ba"/><path id="Shape" d="m4 10c-.55228475 0-1-.44771525-1-1v-2c0-.55228475.44771525-1 1-1s1 .44771525 1 1v2c0 .55228475-.44771525 1-1 1z" fill="#67b9cc"/><path id="Shape" d="m4 34c-.55228475 0-1-.4477153-1-1v-20c0-.5522847.44771525-1 1-1s1 .4477153 1 1v20c0 .5522847-.44771525 1-1 1z" fill="#67b9cc"/><path id="Shape" d="m52 3.54v13.939c-.0002375.307341-.1417889.597502-.3838627.7868662s-.557779.2568957-.8561373.1831338l-2.15-.54c-.3719808-.0898025-.762802.0378915-1.01.33l-2.83 3.4c-.2690667.3247138-.7129175.4457359-1.1095666.3025389-.3966491-.1431971-.6608368-.5198332-.6604334-.9415389v-12.14z" fill="#f0c419"/><path id="Shape" d="m26 48c-.5522847 0-1-.4477153-1-1v-21c0-.5522847.4477153-1 1-1s1 .4477153 1 1v21c0 .5522847-.4477153 1-1 1z" fill="#2fa8cc"/><path id="Shape" d="m32 48c-.5522847 0-1-.4477153-1-1v-21c0-.5522847.4477153-1 1-1s1 .4477153 1 1v21c0 .5522847-.4477153 1-1 1z" fill="#2fa8cc"/><path id="Shape" d="m36 49v6c0 1.66-3.13 3-7 3s-7-1.34-7-3v-6c0 1.66 3.13 3 7 3s7-1.34 7-3z" fill="#3b97d3"/><path id="Shape" d="m36 13v6c0 1.66-3.13 3-7 3s-7-1.34-7-3v-6c2.1222427 1.2581803 4.5333968 1.9470815 7 2 2.4489171-.1618233 4.8352392-.8436297 7-2z" fill="#3b97d3"/><path id="Shape" d="m55.03 1.75-19.03 11.25c-2.1241069 1.1226043-4.4550302 1.7997631-6.85 1.99.47-3.52 2.07-5.56 4.72-7.99 5.58-5.11 13.99-6.68 21.16-5.25z" fill="#f5efca"/><path id="Shape" d="m28.85 14.99c-2.4158843-.066988-4.7742711-.7521252-6.85-1.99l-19.03-11.25c7.17-1.43 15.58.14 21.16 5.25 2.65 2.43 4.25 4.47 4.72 7.99z" fill="#f9eab0"/></g></g></svg>