<svg id="Layer_1" height="512" viewBox="0 0 512 512" width="512" xmlns="http://www.w3.org/2000/svg" data-name="Layer 1"><path d="m366.43 462.48 3.28 5.68h-12.47z" fill="#da6e84"/><path d="m462.76 402.94-2.5 11.04-3.71-7.21 6.2-3.83z" fill="#b2596e"/><path d="m220.69 424.85 24.98 43.31h-62.02l-7.8-13.52z" fill="#da6e84"/><path d="m293.43 443.44 14.26 24.72h-52.37z" fill="#da6e84"/><path d="m370.93 362.75-.17-.17-35.41-13.9-24.98 16.6 28.19 48.88 45.14-29.28z" fill="#b2596e"/><path d="m175.85 454.64 7.8 13.52h-28.14z" fill="#b2596e"/><g fill="#da6e84"><path d="m412.81 321.7 17.08 33.22-46.19 29.96-12.77-22.13-.17-.17z"/><path d="m282.44 316.85-44.57 30.25-18.07-31.32h62.02z"/><path d="m121.92 361.13-24.16 17.89-13.62-63.24h11.62z"/><path d="m183.14 315.78-17.77 13.16-7.59-13.16z"/><path d="m481.1 321.7-18.34 81.24h-.01l-6.2 3.83-26.66-51.85z"/></g><path d="m429.89 354.92 26.66 51.85-44.4 27.45-28.45-49.34z" fill="#b2596e"/><path d="m412.15 434.22-45.72 28.26-27.87-48.32 45.14-29.28z" fill="#da6e84"/><path d="m165.37 328.94 27.93 48.42-44.57 30.25-26.81-46.48z" fill="#da6e84"/><path d="m237.87 347.1 27.66 47.97-44.84 29.78-27.39-47.49z" fill="#da6e84"/><path d="m308.81 315.78 26.54 32.9-24.98 16.6-27.93-48.43 1.57-1.07z" fill="#da6e84"/><path d="m157.78 315.78 7.59 13.16-43.45 32.19-26.16-45.35z" fill="#b2596e"/><path d="m148.73 407.61-39.09 26.54h-.01l-11.87-55.13 24.16-17.89z" fill="#b2596e"/><path d="m282.44 316.85 27.93 48.43-44.84 29.79-27.66-47.97z" fill="#b2596e"/><path d="m310.37 365.28 28.19 48.88-45.13 29.28-27.9-48.37z" fill="#da6e84"/><path d="m460.26 413.98-7.88 34.91a25.31 25.31 0 0 1 -20.82 18.98l-19.41-33.65 44.4-27.45z" fill="#da6e84"/><path d="m237.87 347.1-44.57 30.26-27.93-48.42 17.77-13.16h36.66z" fill="#b2596e"/><path d="m338.56 414.16 27.87 48.32-9.19 5.68h-49.55l-14.26-24.72z" fill="#b2596e"/><path d="m175.85 454.64-20.34 13.52h-18.09a25.323 25.323 0 0 1 -24.67-19.54l-3.12-14.47h.01l39.09-26.54z" fill="#da6e84"/><path d="m482.44 315.78-1.34 5.92-51.21 33.22-17.08-33.22 6.09-5.92h.01z" fill="#b2596e"/><path d="m265.53 395.07 27.9 48.37-38.11 24.72h-9.65l-24.98-43.31z" fill="#b2596e"/><path d="m412.15 434.22 19.41 33.65a25.054 25.054 0 0 1 -3.79.29h-58.06l-3.28-5.68z" fill="#b2596e"/><path d="m220.69 424.85-44.84 29.79-27.12-47.03 44.57-30.25z" fill="#b2596e"/><path d="m243.13 229.18-2.3-61.36a287.713 287.713 0 0 0 -9.4-37.13l-.06.02-9.19-24.01c-11.72-26.04-27.46-47.17-46.41-58.24l-4.77-2.79a13.171 13.171 0 0 0 -19.71 13.1l22.5 186.22v.03l6.34 44.67h63v-33.22h-.01l.01-25.27z" fill="#895a37"/><path d="m173.79 245.02-7.6-24.48a317.89 317.89 0 0 0 -15.22-35.08l-12.15-21.92a305.315 305.315 0 0 0 -21.77-31.41l-16.95-19.23c-20.04-20.4-41.95-34.6-63.38-37.99l-5.46-.87a13.157 13.157 0 0 0 -13.58 19.36l110.27 196.29h52.18a194.329 194.329 0 0 0 -6.34-44.67z" fill="#b07e68"/><path d="m244.06 189.76h-.93a13.817 13.817 0 0 0 -11.61 6.3l-17.93.85a12.556 12.556 0 0 1 -14.17-10.67 12.976 12.976 0 0 1 -.12-1.75 12.549 12.549 0 0 1 10.8-12.4l30.73-4.27c1.34 7.27 2.42 14.6 3.23 21.94z" fill="#c79a83"/><path d="m231.43 130.69-.06.02-26.56 3.72a12.541 12.541 0 0 1 -14.17-10.66 12.976 12.976 0 0 1 -.12-1.75 12.541 12.541 0 0 1 10.81-12.4l20.85-2.92h.01a240.183 240.183 0 0 1 9.24 23.99z" fill="#c79a83"/><path d="m243.13 231.2v25.27h-.01l-20.75 2.91a12.543 12.543 0 0 1 -14.17-10.66 13.088 13.088 0 0 1 -.12-1.75 12.534 12.534 0 0 1 10.8-12.4z" fill="#c79a83"/><path d="m173.79 244.99v.03l-16.83 9.44a12.532 12.532 0 1 1 -12.28-21.85l21.51-12.07c2.97 8.2 5.52 16.39 7.6 24.45z" fill="#e1b7a3"/><path d="m150.97 185.46-24.94 13.99a12.535 12.535 0 1 1 -12.29-21.85l25.08-14.06c4.31 7.13 8.38 14.46 12.15 21.92z" fill="#e1b7a3"/><path d="m117.05 132.13-21.96 12.31a12.528 12.528 0 1 1 -12.28-21.84l17.29-9.7a243.729 243.729 0 0 1 16.95 19.23z" fill="#e1b7a3"/><path d="m410.35 146.69h-134.47a13.806 13.806 0 0 0 -13.83 13.79v2.78a13.806 13.806 0 0 0 7.52 12.28 11.815 11.815 0 0 1 6.31 10.57v8.65l99.72 38.44h34.75v-47.09a12.151 12.151 0 0 1 1.68-6.19 11.434 11.434 0 0 1 4.63-4.38 13.806 13.806 0 0 0 7.52-12.28v-2.78a13.806 13.806 0 0 0 -13.83-13.79z" fill="#c79a83"/><path d="m453.22 231h-77.22v64.33l70.24-6.33h6.76v-18.38a12.344 12.344 0 0 1 1.79-6.18 11.54 11.54 0 0 1 4.66-4.39 13.815 13.815 0 0 0 7.55-12.28v-2.78a13.935 13.935 0 0 0 -13.78-13.99z" fill="#e1b7a3"/><path d="m377.6 190h-134.47a13.977 13.977 0 0 0 -11.76 6.18 13.43 13.43 0 0 0 -2.37 7.37v2.78a13.883 13.883 0 0 0 7.6 12.28 11.911 11.911 0 0 1 6.4 10.57v59.82h44.2l90.8 6.33v-66.15a12.08 12.08 0 0 1 1.48-6.18 10.67 10.67 0 0 1 4.315-4.39 13.531 13.531 0 0 0 7.2-12.28v-2.78a13.242 13.242 0 0 0 -13.395-13.55z" fill="#b28a77"/><path d="m49.479 78.163a74.139 74.139 0 0 0 -12.759-3.253l-5.46-.87c-10.83-1.71-18.89 9.935-13.58 19.515l110.27 196.445h30l-110.27-196.445a13.272 13.272 0 0 1 1.799-15.392z" fill="#825b4e"/><path d="m482.44 289h-398.365a13.333 13.333 0 0 0 -9.558 3.815 13.6 13.6 0 0 0 9.623 23.185h398.3a13.667 13.667 0 0 0 9.59-4.07 13.3 13.3 0 0 0 3.97-9.48 13.472 13.472 0 0 0 -13.56-13.45z" fill="#4689d3"/><path d="m441.94 282.33h-150.46a4.617 4.617 0 0 0 -4.28 6.36 4.522 4.522 0 0 0 .68 1.15l61.21 75.87a12.218 12.218 0 0 0 17.37 1.05l78.71-76.51a4.542 4.542 0 0 0 1.07-1.56 4.633 4.633 0 0 0 -4.3-6.36z" fill="#5fcda4"/><path d="m100.564 302.427a13.581 13.581 0 0 1 3.953-9.612 13.333 13.333 0 0 1 9.558-3.815h-30a13.333 13.333 0 0 0 -9.558 3.815 13.6 13.6 0 0 0 9.623 23.185h30a13.59 13.59 0 0 1 -13.576-13.573z" fill="#3f74a5"/><g fill="#284268"><path d="m325.022 178.352a6.7 6.7 0 1 0 -6.7-6.7 6.71 6.71 0 0 0 6.7 6.7z"/><path d="m299.627 213.44a6.7 6.7 0 1 0 -6.7-6.7 6.71 6.71 0 0 0 6.7 6.7z"/><path d="m440.685 255.593a6.7 6.7 0 1 0 -6.7-6.7 6.71 6.71 0 0 0 6.7 6.7z"/><path d="m291.089 170.93a6.7 6.7 0 1 0 -6.7-6.7 6.71 6.71 0 0 0 6.7 6.7z"/><path d="m364.352 213.8a6.7 6.7 0 1 0 -6.7-6.7 6.71 6.71 0 0 0 6.7 6.7z"/><path d="m396.205 176.231a6.7 6.7 0 1 0 -6.7-6.7 6.71 6.71 0 0 0 6.7 6.7z"/><path d="m393.675 253.229a6.7 6.7 0 1 0 -6.7-6.7 6.709 6.709 0 0 0 6.7 6.7z"/><path d="m416.264 271.956a6.7 6.7 0 1 0 -6.7-6.7 6.71 6.71 0 0 0 6.7 6.7z"/><path d="m296.065 267.074a6.7 6.7 0 1 0 6.7-6.7 6.709 6.709 0 0 0 -6.7 6.7z"/><path d="m259.235 266.353a6.7 6.7 0 1 0 -6.7-6.7 6.709 6.709 0 0 0 6.7 6.7z"/><path d="m364.352 271.655a6.7 6.7 0 1 0 -6.7-6.7 6.71 6.71 0 0 0 6.7 6.7z"/><circle cx="334.171" cy="237.386" r="6.702"/><path d="m285.475 242.168a6.7 6.7 0 1 0 -6.7-6.7 6.71 6.71 0 0 0 6.7 6.7z"/><path d="m358.9 170.428a6.7 6.7 0 1 0 -6.7-6.7 6.71 6.71 0 0 0 6.7 6.7z"/><path d="m246.494 212.28a6.7 6.7 0 1 0 -6.7-6.7 6.709 6.709 0 0 0 6.7 6.7z"/><path d="m304.815 117.355a6 6 0 0 0 0 12h50.663a6 6 0 1 0 0-12z"/><path d="m283.826 117.355a6 6 0 0 0 0 12h2.974a6 6 0 1 0 0-12z"/><path d="m482.435 282.691h-23.21v-12.074a5.859 5.859 0 0 1 3.042-5.231 19.722 19.722 0 0 0 10.783-17.619v-2.777a19.833 19.833 0 0 0 -19.825-19.79h-36.871v-39.092a5.859 5.859 0 0 1 3.043-5.231 19.724 19.724 0 0 0 10.782-17.618v-2.778a19.832 19.832 0 0 0 -19.825-19.793h-134.475a19.831 19.831 0 0 0 -19.825 19.793v2.778a19.721 19.721 0 0 0 10.783 17.618 5.586 5.586 0 0 1 2.579 2.882h-20.035c-8.314-65.322-35.727-120.116-70.581-140.482l-4.773-2.788a19.167 19.167 0 0 0 -28.687 19l16.173 133.855a337.328 337.328 0 0 0 -22.677-41.091c-30.8-47.623-67.676-77.974-101.177-83.274l-5.459-.863a19.154 19.154 0 0 0 -19.748 28.234l105.222 186.341h-33.53a19.531 19.531 0 0 0 -4.99 38.423l27.733 128.772c.007.034.014.069.023.1a31.2 31.2 0 0 0 30.508 24.171h290.355a31.254 31.254 0 0 0 30.43-23.845c.009-.035.018-.071.026-.108l29.151-129.079a19.531 19.531 0 0 0 -4.945-38.434zm-29.21-45.491a7.819 7.819 0 0 1 7.825 7.794v2.777a7.768 7.768 0 0 1 -4.255 6.938 17.732 17.732 0 0 0 -9.57 15.912v7.116a10.6 10.6 0 0 0 -5.283-1.4h-58.342v-39.137zm-25.635 126.364 21.093 41.021-34.429 21.281-22.517-39.045zm-41.856 12.847-7.4-12.827 32.846-31.93 10.892 21.184zm34.446-53.5 1.158-1.126h48.612l-37.756 24.492zm-57.805 39.457a6.221 6.221 0 0 1 -8.7-.523l-59.3-73.512h144.159zm-198.839-24.6 21.778 37.758-34.615 23.5-20.912-36.257zm-39.784 14.536-17.6-30.524h48.168l3.187 5.524zm49.49-21.726 11.878-8.8h31.216l13.548 23.489-34.615 23.5zm62.658 25.116 21.624 37.492-34.824 23.136-21.415-37.13zm-5.706-33.912h34.3l-24.646 16.731zm15.661 27.154 34.616-23.5 21.888 37.964-34.825 23.136zm46.36-27.154h13.731l20.607 25.544-14.174 9.416zm16.157 52.03 22.155 38.414-35.053 22.738-21.927-38.015zm10.015-6.653 15.733-10.453 10.307 12.776c.049.061.1.121.151.18a18.087 18.087 0 0 0 12.619 6.2q.566.035 1.127.035a18.042 18.042 0 0 0 11.08-3.79l6.255 10.846-35.059 22.733zm-50.328-203.9v-2.778a7.818 7.818 0 0 1 7.825-7.793h134.47a7.818 7.818 0 0 1 7.825 7.793v2.778a7.771 7.771 0 0 1 -4.254 6.938 17.729 17.729 0 0 0 -9.571 15.911v39.092h-19.274a5.3 5.3 0 0 1 1.565-1.248 19.721 19.721 0 0 0 10.783-17.618v-2.778a19.832 19.832 0 0 0 -19.828-19.797h-95.874a17.63 17.63 0 0 0 -9.417-13.562 7.77 7.77 0 0 1 -4.255-6.938zm-24.926 32.5h134.467a7.818 7.818 0 0 1 7.825 7.793v2.778a7.77 7.77 0 0 1 -4.254 6.938 17.729 17.729 0 0 0 -9.571 15.912v47.15h-80.12a10.539 10.539 0 0 0 -9.583 6.038c-.05.106-.08.217-.127.323h-32.642v-53.512a17.728 17.728 0 0 0 -9.57-15.91 7.772 7.772 0 0 1 -4.255-6.939v-2.778a7.818 7.818 0 0 1 7.825-7.793zm-5.734-11.149a19.847 19.847 0 0 0 -8.857 5.588l-15.228.717c-.184.008-.369.025-.551.051a6.55 6.55 0 0 1 -7.394-5.559 6.53 6.53 0 0 1 5.568-7.369l24.969-3.477q.825 5.009 1.488 10.049zm-14.01-58.836-19.4 2.719a6.551 6.551 0 0 1 -7.394-5.559 6.535 6.535 0 0 1 5.571-7.372l16.34-2.289q2.567 6.063 4.878 12.501zm-66.151-67.805a7.168 7.168 0 0 1 10.732-7.118l4.772 2.788c15.229 8.9 29.159 25.522 40.513 48.252l-12.763 1.788a18.528 18.528 0 0 0 2.566 36.879 18.792 18.792 0 0 0 2.588-.181l21.568-3.023c2.508 8.206 4.689 16.716 6.49 25.4l-24.432 3.4a18.528 18.528 0 0 0 2.563 36.878 18.635 18.635 0 0 0 2.288-.141l9.235-.435c-.02.365-.055.727-.055 1.1v2.778a19.723 19.723 0 0 0 10.783 17.619 5.456 5.456 0 0 1 2.216 2.139l-18.252 2.539a18.528 18.528 0 0 0 2.563 36.878 18.8 18.8 0 0 0 2.59-.181l13.925-1.951v19.318h-51.2a201.363 201.363 0 0 0 -6.26-39.113zm79.89 180.12v13.166l-15.591 2.185a6.554 6.554 0 0 1 -7.393-5.559 6.531 6.531 0 0 1 5.565-7.37zm-74.291-8.789q2.15 6.441 3.915 12.784l-12.725 7.136a6.561 6.561 0 0 1 -8.918-2.5 6.519 6.519 0 0 1 2.5-8.884zm-19.864-46.234-19.879 11.148a6.562 6.562 0 0 1 -8.919-2.5 6.519 6.519 0 0 1 2.5-8.884l19.964-11.2q3.287 5.67 6.334 11.438zm-35.116-52.66-15.7 8.8a6.563 6.563 0 0 1 -8.919-2.5 6.52 6.52 0 0 1 2.5-8.883l13.212-7.409q4.495 4.757 8.907 9.994zm-84.932-39.915a7.155 7.155 0 0 1 7.4-10.523l5.461.864c17.15 2.713 35.988 13.591 54.338 30.783l-10.249 5.748a18.532 18.532 0 0 0 18.155 32.314l17.448-9.784q6.811 8.9 13.278 18.875c.559.864 1.107 1.736 1.658 2.607l-19.605 10.994a18.533 18.533 0 0 0 18.156 32.314l19.41-10.883c3.841 7.985 7.311 16.035 10.365 24.045l-17 9.532a18.533 18.533 0 0 0 18.16 32.312l9.876-5.539a180.777 180.777 0 0 1 4.124 28.541h-42.445zm53.653 211.745a7.564 7.564 0 0 1 7.566-7.545h199.942l12.175 15.091h-212.117a7.564 7.564 0 0 1 -7.566-7.546zm14.995 19.546h.721l21.752 37.718-12.377 9.167zm22.055 102.409-9.185-42.65 15.638-11.582 20.663 35.825zm40.072 37.969h-16.282a19.245 19.245 0 0 1 -18.812-14.854l-2.252-10.461 30.4-20.638 21.086 36.558zm3.011-52.711 34.615-23.5 21.355 37.025-34.824 23.136zm30.4 52.711-3.249-5.632 34.825-23.136 16.593 28.768zm62.021 0-20.432-35.422 34.827-23.138 21.861 37.9-31.845 20.66zm26.463 0 15.8-10.246 5.905 10.246zm79.942 0h-44.383l-9.681-16.786 35.053-22.738 21.8 37.8zm-8.93-46.06 35.05-22.736 22.386 38.818-35.5 21.945zm31.753 46.06 31.68-19.583 11.294 19.583zm68.177-14.655a19.255 19.255 0 0 1 -12.047 13.45l-14.238-24.69 33.5-20.707zm11.508-50.957-20.336-39.548 34.291-22.244zm24.39-86.766h-48.753l15.524-15.091h33.229a7.546 7.546 0 1 1 0 15.091z"/></g></svg>