<svg height="512" viewBox="0 0 58 58" width="512" xmlns="http://www.w3.org/2000/svg"><g id="Page-1" fill="none" fill-rule="evenodd"><g id="032---Book" fill-rule="nonzero"><path id="Shape" d="m11 38v-32c0-3.3137085 2.6862915-6 6-6h39c1.1032019.0032948 1.9967052.89679813 2 2v54c-.0032948 1.1032019-.8967981 1.9967052-2 2h-9z" fill="#67b9cc"/><rect id="Rectangle-path" fill="#ecf0f1" height="12" rx="1" width="28" x="24" y="6"/><path id="Shape" d="m50 24h-24c-.5522847 0-1-.4477153-1-1s.4477153-1 1-1h24c.5522847 0 1 .4477153 1 1s-.4477153 1-1 1z" fill="#3f5c6c"/><path id="Shape" d="m45 29h-14c-.5522847 0-1-.4477153-1-1s.4477153-1 1-1h14c.5522847 0 1 .4477153 1 1s-.4477153 1-1 1z" fill="#3f5c6c"/><path id="Shape" d="m18 0v41.89l-7-3.89v-32c0-3.3137085 2.6862915-6 6-6z" fill="#2fa8cc"/><path id="Shape" d="m49 56c-.0081672 1.1011688-.8988312 1.9918328-2 2h-36.69c-5.32501409.06779-9.80437605-3.9758363-10.28-9.28-.19991146-2.7693387.76056309-5.4971265 2.65146594-7.5302738 1.89090285-2.0331472 4.5419894-3.1886027 7.31853406-3.1897262h37c1.1032019.0032948 1.9967052.8967981 2 2-.0081672 1.1011688-.8988312 1.9918328-2 2h-37c-3.2494364.0056802-5.9065153 2.5919037-6 5.84.02641344 3.4262669 2.82371036 6.1832828 6.25 6.16h36.75c1.1032019.0032948 1.9967052.8967981 2 2z" fill="#4482c3"/><path id="Shape" d="m44 48c-.0235975 2.0628844.3887326 4.1074967 1.21 6h-34.96c-3.42628964.0232828-6.22358656-2.7337331-6.25-6.16.0934847-3.2480963 2.7505636-5.8343198 6-5.84h35.21c-.8212674 1.8925033-1.2335975 3.9371156-1.21 6z" fill="#f9eab0"/><g fill="#fac176"><path id="Shape" d="m27 47h-17c-.55228475 0-1-.4477153-1-1s.44771525-1 1-1h17c.5522847 0 1 .4477153 1 1s-.4477153 1-1 1z"/><path id="Shape" d="m39 47h-8c-.5522847 0-1-.4477153-1-1s.4477153-1 1-1h8c.5522847 0 1 .4477153 1 1s-.4477153 1-1 1z"/><path id="Shape" d="m39 51h-17c-.5522847 0-1-.4477153-1-1s.4477153-1 1-1h17c.5522847 0 1 .4477153 1 1s-.4477153 1-1 1z"/><path id="Shape" d="m18 51h-8c-.55228475 0-1-.4477153-1-1s.44771525-1 1-1h8c.5522847 0 1 .4477153 1 1s-.4477153 1-1 1z"/></g></g></g></svg>