<?xml version="1.0" encoding="iso-8859-1"?>
<!-- Generator: Adobe Illustrator 19.0.0, SVG Export Plug-In . SVG Version: 6.00 Build 0)  -->
<svg version="1.1" id="Layer_1" xmlns="http://www.w3.org/2000/svg" xmlns:xlink="http://www.w3.org/1999/xlink" x="0px" y="0px"
	 viewBox="0 0 512 512" style="enable-background:new 0 0 512 512;" xml:space="preserve">
<circle style="fill:#2D2D2D;" cx="256" cy="416.96" r="28.96"/>
<path style="fill:#8AD5DD;" d="M313.2,339.624l-23.792,19.464c-4.976-2.616-10.32-4.632-15.952-5.904l-3.136-31.328h-14.264h-0.12
	H241.68l-3.136,31.328c-5.632,1.272-10.976,3.28-15.952,5.904L198.8,339.624l-20.168,20.168l18.712,22.872
	c-3.248,5.256-5.792,10.992-7.448,17.104l-29.032,2.904v28.52l29.072,2.904c1.672,6.088,4.176,11.832,7.424,17.08l-18.728,22.896
	L198.8,494.24l23.792-19.464c4.976,2.616,10.328,4.632,15.96,5.896L241.68,512h14.264h0.12h14.264l3.136-31.328
	c5.632-1.272,10.984-3.28,15.96-5.896l23.792,19.464l20.168-20.168l-18.728-22.896c3.24-5.248,5.752-10.992,7.424-17.08
	l29.072-2.904v-28.52l-29.032-2.904c-1.656-6.104-4.2-11.848-7.448-17.104l18.72-22.872L313.2,339.624z M256,459.832
	c-23.696,0-42.904-19.208-42.904-42.904c0-23.696,19.208-42.904,42.904-42.904s42.904,19.208,42.904,42.904
	S279.696,459.832,256,459.832z"/>
<circle style="fill:#2D2D2D;" cx="416.88" cy="210.584" r="28.96"/>
<path style="fill:#8AD5DD;" d="M475.52,176.32l18.72-22.872l-20.168-20.168l-23.792,19.464c-4.976-2.616-10.32-4.632-15.952-5.904
	l-3.136-31.328h-14.264h-0.12h-14.264l-3.136,31.328c-5.632,1.272-10.976,3.288-15.952,5.904l-23.792-19.464l-20.168,20.168
	l18.712,22.872c-3.248,5.256-5.792,10.992-7.448,17.104l-29.032,2.904v28.52l29.072,2.904c1.672,6.088,4.176,11.832,7.424,17.08
	l-18.728,22.896l20.168,20.168l23.792-19.464c4.976,2.616,10.328,4.632,15.96,5.896l3.136,31.328h14.264h0.12H431.2l3.136-31.328
	c5.632-1.272,10.984-3.28,15.96-5.896l23.792,19.464l20.168-20.168l-18.728-22.896c3.24-5.248,5.752-10.992,7.424-17.08L512,224.84
	v-28.52l-29.032-2.904C481.312,187.312,478.768,181.576,475.52,176.32z M416.872,253.488c-23.696,0-42.904-19.208-42.904-42.904
	s19.208-42.904,42.904-42.904s42.904,19.208,42.904,42.904C459.768,234.28,440.56,253.488,416.872,253.488z"/>
<circle style="fill:#2D2D2D;" cx="139.128" cy="139.04" r="42.352"/>
<path style="fill:#DB2B42;" d="M113.608,232.272l4.584,45.816h20.856h0.176h20.856l4.584-45.816c8.24-1.856,16.056-4.8,23.344-8.632
	l34.792,28.464l29.496-29.496l-27.392-33.48c4.744-7.68,8.408-16.072,10.856-24.984l42.52-4.248v-41.712l-42.456-4.248
	C233.4,105,229.68,96.608,224.928,88.92l27.376-33.456l-29.496-29.496l-34.8,28.472c-7.28-3.832-15.096-6.776-23.336-8.632
	L160.072,0h-20.856h-0.176h-20.856L113.6,45.816c-8.24,1.856-16.056,4.8-23.336,8.632l-34.8-28.472L25.976,55.472l27.376,33.456
	c-4.752,7.688-8.464,16.08-10.896,25.016L0,118.184v41.712l42.52,4.248c2.448,8.904,6.112,17.304,10.856,24.984l-27.392,33.48
	l29.496,29.496l34.792-28.464C97.544,227.472,105.368,230.416,113.608,232.272z M139.128,76.296
	c34.648,0,62.744,28.088,62.744,62.744c0,34.648-28.088,62.744-62.744,62.744s-62.744-28.088-62.744-62.744
	C76.384,104.392,104.48,76.296,139.128,76.296z"/>
<g>
</g>
<g>
</g>
<g>
</g>
<g>
</g>
<g>
</g>
<g>
</g>
<g>
</g>
<g>
</g>
<g>
</g>
<g>
</g>
<g>
</g>
<g>
</g>
<g>
</g>
<g>
</g>
<g>
</g>
</svg>
